<?xml version="1.0" encoding="utf-8"?>
<!-- Generator: Adobe Illustrator 23.0.5, SVG Export Plug-In . SVG Version: 6.00 Build 0)  -->
<svg version="1.1" id="Слой_1" xmlns="http://www.w3.org/2000/svg" xmlns:xlink="http://www.w3.org/1999/xlink" x="0px" y="0px"
	 viewBox="0 0 62.2 19" enable-background="new 0 0 62.2 19" xml:space="preserve">
<g>
	<g id="Слой_3">
		<g>
			<polygon fill="#335EEA" points="5.8,18 5.8,12.2 0.8,12.2 7.5,0 7.5,5.8 12.4,5.8 			"/>
		</g>
	</g>
</g>
<g>
	<path fill="#335EEA" d="M21.7,1.7h8v1.4h-6.2v4.6h5.4v1.4h-5.4v5.1h6.3v1.4h-8.1V1.7z"/>
	<path fill="#335EEA" d="M39,11h-4.9v4.6h-1.7V5.5h1.7v4.3H39V5.5h1.7v10.1H39V11z"/>
	<path fill="#335EEA" d="M47.8,15.8c-0.7,0-1.3-0.1-1.9-0.4c-0.6-0.2-1.1-0.6-1.5-1c-0.4-0.4-0.8-1-1-1.6c-0.3-0.6-0.4-1.4-0.4-2.2
		c0-0.8,0.1-1.6,0.4-2.2c0.3-0.6,0.6-1.2,1-1.6c0.4-0.4,1-0.8,1.5-1c0.6-0.2,1.2-0.3,1.9-0.3c0.7,0,1.3,0.1,1.9,0.3
		c0.6,0.2,1.1,0.6,1.6,1c0.4,0.4,0.8,1,1.1,1.6c0.3,0.6,0.4,1.4,0.4,2.2c0,0.8-0.1,1.6-0.4,2.2c-0.3,0.6-0.6,1.2-1.1,1.6
		c-0.4,0.4-1,0.8-1.6,1C49.1,15.7,48.4,15.8,47.8,15.8z M47.8,14.5c0.4,0,0.8-0.1,1.2-0.2c0.4-0.1,0.7-0.4,1-0.7
		c0.3-0.3,0.5-0.7,0.7-1.2c0.2-0.5,0.3-1.1,0.3-1.8c0-0.7-0.1-1.3-0.3-1.8c-0.2-0.5-0.4-0.9-0.7-1.2c-0.3-0.3-0.6-0.5-1-0.7
		c-0.4-0.1-0.8-0.2-1.2-0.2c-0.4,0-0.8,0.1-1.2,0.2c-0.4,0.1-0.7,0.4-1,0.7c-0.3,0.3-0.5,0.7-0.7,1.2c-0.2,0.5-0.3,1.1-0.3,1.8
		c0,0.7,0.1,1.3,0.3,1.8c0.2,0.5,0.4,0.9,0.7,1.2c0.3,0.3,0.6,0.5,1,0.7C47,14.4,47.4,14.5,47.8,14.5z"/>
	<path fill="#335EEA" d="M58.6,6.7v8.9h-1.7V6.7h-3.1V5.5h7.9v1.2H58.6z"/>
</g>
</svg>
